<svg xmlns="http://www.w3.org/2000/svg" width="410" height="404" viewBox="0 0 410 404"><defs><linearGradient id="a" x1="35.76%" x2="64.24%" y1="0%" y2="100%"><stop offset="0%" stop-color="#FFEA83"/><stop offset="8.333%" stop-color="#FFDD35"/><stop offset="100%" stop-color="#FFA800"/></linearGradient><linearGradient id="b" x1="46.38%" x2="53.62%" y1="0%" y2="100%"><stop offset="0%" stop-color="#00C6FF"/><stop offset="100%" stop-color="#0072FF"/></linearGradient></defs><g fill="none" fill-rule="evenodd"><path fill="url(#a)" d="M255.24 22.56L404.58 361.9c5.98 13.32-.4 29.05-13.72 35.03a26.5 26.5 0 0 1-11.28 2.35H30.42c-14.72 0-26.67-11.95-26.67-26.67a26.5 26.5 0 0 1 2.35-11.28L155.38 22.56c5.98-13.32 21.7-19.7 35.02-13.72a26.5 26.5 0 0 1 11.28 8.65l47.41 60.13 47.41-60.13c8.94-11.34 25.25-13.3 36.6-4.36a26.5 26.5 0 0 1 8.65 11.28z"/><path fill="url(#b)" d="M310.5 213.36L201.82 382.5 93.15 213.36c-7.52-11.78-4.12-27.3 7.66-34.82a25 25 0 0 1 13.34-3.94h175.26c14.3 0 25.87 11.57 25.87 25.87a25 25 0 0 1-3.94 13.34z"/><path fill="#FFF" d="M205.1 121.3l59.5 96.72h-119z"/></g></svg>
